HIERARCHY
ROOT Hips
{
    OFFSET 0.000000 0.000000 0.000000
    CHANNELS 6 Xposition Yposition Zposition Zrotation Xrotation Yrotation
    JOINT Spine
    {
        OFFSET -0.000000 0.079523 0.000000
        CHANNELS 3 Zrotation Xrotation Yrotation
        JOINT Spine1
        {
            OFFSET -0.000000 0.192445 0.000000
            CHANNELS 3 Zrotation Xrotation Yrotation
            JOINT Neck
            {
                OFFSET -0.000000 0.191655 0.017423
                CHANNELS 3 Zrotation Xrotation Yrotation
                JOINT Head
                {
                    OFFSET -0.000000 0.135771 -0.019396
                    CHANNELS 3 Zrotation Xrotation Yrotation
                    End Site
                    {
                        OFFSET -0.000000 0.242449 0.000000
                    }
                }
            }
            JOINT LeftShoulder
            {
                OFFSET 0.039141 0.175231 -0.001157
                CHANNELS 3 Zrotation Xrotation Yrotation
                JOINT LeftArm
                {
                    OFFSET 0.104248 0.000000 0.000000
                    CHANNELS 3 Zrotation Xrotation Yrotation
                    JOINT LeftForeArm
                    {
                        OFFSET 0.307569 0.000000 0.000000
                        CHANNELS 3 Zrotation Xrotation Yrotation
                        JOINT LeftHand
                        {
                            OFFSET 0.230447 0.000000 0.000000
                            CHANNELS 3 Zrotation Xrotation Yrotation
                            End Site
                            {
                                OFFSET 0.145469 0.000000 0.000000
                            }
                        }
                    }
                }
            }
            JOINT RightShoulder
            {
                OFFSET -0.038425 0.175231 -0.001157
                CHANNELS 3 Zrotation Xrotation Yrotation
                JOINT RightArm
                {
                    OFFSET -0.104248 0.000000 0.000000
                    CHANNELS 3 Zrotation Xrotation Yrotation
                    JOINT RightForeArm
                    {
                        OFFSET -0.307569 0.000000 0.000000
                        CHANNELS 3 Zrotation Xrotation Yrotation
                        JOINT RightHand
                        {
                            OFFSET -0.230447 0.000000 0.000000
                            CHANNELS 3 Zrotation Xrotation Yrotation
                            End Site
                            {
                                OFFSET -0.145469 0.000000 0.000000
                            }
                        }
                    }
                }
            }
        }
    }
    JOINT LeftUpLeg
    {
        OFFSET 0.096979 0.000000 0.000000
        CHANNELS 3 Zrotation Xrotation Yrotation
        JOINT LeftLeg
        {
            OFFSET -0.000000 -0.427459 0.000000
            CHANNELS 3 Zrotation Xrotation Yrotation
            JOINT LeftFoot
            {
                OFFSET -0.000000 -0.447558 0.000000
                CHANNELS 3 Zrotation Xrotation Yrotation
                JOINT LeftToeBase
                {
                    OFFSET -0.000000 -0.063037 0.145469
                    CHANNELS 3 Zrotation Xrotation Yrotation
                    End Site
                    {
                        OFFSET -0.000000 0.000000 0.038792
                    }
                }
            }
        }
    }
    JOINT RightUpLeg
    {
        OFFSET -0.096979 0.000000 0.000000
        CHANNELS 3 Zrotation Xrotation Yrotation
        JOINT RightLeg
        {
            OFFSET -0.000000 -0.427459 0.000000
            CHANNELS 3 Zrotation Xrotation Yrotation
            JOINT RightFoot
            {
                OFFSET -0.000000 -0.447558 0.000000
                CHANNELS 3 Zrotation Xrotation Yrotation
                JOINT RightToeBase
                {
                    OFFSET -0.000000 -0.063037 0.145469
                    CHANNELS 3 Zrotation Xrotation Yrotation
                    End Site
                    {
                        OFFSET -0.000000 0.000000 0.038792
                    }
                }
            }
        }
    }
}
MOTION
Frames:    8
Frame Time:    0.008333
-0.459186    0.922421    0.626706    7.303195    -1.613237    -123.022743    -1.903371    -8.578801    -0.143112    6.186644    1.485884    -4.051357    -1.439899    10.572363    -0.072845    9.011046    -4.302560    7.851057    4.740137    8.001102    12.306126    -68.296959    20.510559    -20.264475    1.123716    -0.968483    -81.504631    -1.995623    19.748182    16.917000    3.407733    11.827389    -9.203736    73.646164    7.638481    -13.948619    3.613557    1.065869    32.849144    -13.973824    0.300961    -11.286139    -1.160404    0.603416    7.748630    -0.982537    6.847281    -5.759158    -3.120512    -11.443819    2.261533    0.000000    0.000000    0.000000    1.871643    -14.569611    21.402962    5.185635    5.299963    -0.990939    5.686016    -3.559917    -20.991634    0.000000    0.000000    0.000000    
-0.459873    0.924042    0.627264    7.960579    -1.551111    -124.392242    -0.733544    -8.313309    -0.053838    6.015521    0.925214    -2.819053    -1.413798    10.651417    -0.070514    8.793254    -4.681395    7.914809    4.759245    7.926347    12.300032    -68.380684    20.886114    -20.848124    1.577373    -1.363557    -81.674782    -2.024831    19.489553    16.850529    3.429080    11.814152    -9.152723    73.517845    7.299072    -14.081898    3.916742    1.116890    31.812302    -13.710673    0.147368    -11.181005    -0.813332    -0.157271    9.355896    -0.850096    7.566013    -6.204633    -3.184023    -11.462477    2.564362    0.000000    0.000000    0.000000    2.578407    -15.687429    21.940165    5.520730    6.167398    -1.337364    5.917848    -2.288537    -19.866364    0.000000    0.000000    0.000000    
-0.463239    0.924230    0.626071    7.783033    -1.794249    -124.619461    -0.727466    -8.233268    -0.052857    6.094683    0.953033    -2.776193    -1.303014    10.550493    -0.066129    8.544787    -4.722838    8.170228    4.834041    7.921659    12.305269    -68.575081    21.142946    -21.397747    1.847229    -1.601654    -81.850983    -1.834008    19.740816    17.106354    3.633369    12.065303    -8.930273    73.321381    6.924480    -14.103072    3.992253    1.106881    30.973530    -13.285897    -0.033770    -11.141357    -1.166427    -0.205181    9.644279    -0.796679    8.109524    -6.233258    -2.897264    -11.250562    2.694506    0.000000    0.000000    0.000000    2.180413    -15.769356    21.277517    5.787925    6.716019    -0.906789    5.023842    -2.172888    -19.195663    0.000000    0.000000    0.000000    
-0.466490    0.924303    0.624748    7.729111    -2.030864    -124.882645    -0.758674    -8.438090    -0.055987    6.581706    1.257045    -2.617747    -1.567247    10.575982    3.160412    7.977621    -5.402792    4.877392    4.419363    7.880301    12.043997    -68.479546    21.426205    -21.817011    2.555099    -2.229435    -82.209061    -1.800420    18.957735    16.519554    3.367585    12.026823    -8.919812    73.199730    6.360461    -14.072173    4.522724    1.203366    29.777641    -13.079412    0.514560    -10.919327    -1.404424    -0.392109    9.993788    -0.775758    8.716077    -5.930351    -2.798357    -11.128742    2.322425    0.000000    0.000000    0.000000    1.961839    -16.010748    20.728168    5.973858    7.410374    0.004704    4.680665    -2.625118    -19.236988    0.000000    0.000000    0.000000    
-0.469824    0.924411    0.623470    7.557029    -2.282142    -125.035881    -0.776457    -8.387800    -0.056950    6.740508    1.281861    -2.639168    -1.510469    10.532699    3.247636    7.567325    -5.408683    4.888299    4.342003    8.026574    11.991715    -68.618065    21.510447    -22.282726    2.556970    -2.238605    -82.400642    -2.011792    20.391706    17.009106    3.346954    12.082788    -8.848886    73.294434    6.022031    -14.356454    4.198938    1.103288    29.424383    -12.309398    0.967779    -11.125034    -1.733092    -0.668809    9.999509    -0.736616    9.648572    -5.720524    -2.927080    -11.148774    2.411458    0.000000    0.000000    0.000000    1.645891    -16.132946    20.243759    6.114978    8.114762    1.356149    4.551297    -3.327787    -20.017159    0.000000    0.000000    0.000000    
-0.473200    0.924567    0.622272    7.375010    -2.527195    -125.150520    -0.790668    -8.340061    -0.057668    6.897430    1.334439    -2.710188    -1.469480    10.564278    3.415147    7.201135    -5.562199    4.999816    4.313530    7.871319    11.972296    -68.907921    21.811646    -22.334103    3.037961    -2.679908    -82.838104    -1.880615    19.413973    16.662683    3.310827    12.145960    -8.728728    73.040375    5.789338    -14.222760    4.847471    1.220868    28.250830    -12.353585    1.526827    -10.904696    -2.043817    -0.973819    10.143391    -0.706775    10.607167    -5.509250    -3.046476    -11.063465    2.301344    0.000000    0.000000    0.000000    1.350674    -16.187855    19.779881    6.148341    8.706700    2.398793    4.303933    -3.799825    -20.459053    0.000000    0.000000    0.000000    
-0.476337    0.924693    0.621176    7.282307    -2.811745    -125.232971    -0.815091    -8.345651    -0.059483    7.082512    1.329339    -2.734195    -1.349227    10.629276    3.407692    6.692684    -5.594608    4.889805    4.275972    7.882582    11.872553    -69.242622    21.970427    -22.348263    3.604388    -3.216144    -83.486938    -1.844045    17.439709    15.510656    3.272439    12.165064    -8.639610    72.918755    5.605454    -14.258893    5.117889    1.248333    27.392693    -12.086585    2.216761    -10.773059    -2.329510    -1.542982    10.140958    -0.660037    11.908143    -5.931176    -3.020638    -11.099498    3.047673    0.000000    0.000000    0.000000    1.103873    -16.290821    19.198362    6.060627    9.191457    3.264220    3.953210    -4.048974    -20.592926    0.000000    0.000000    0.000000    
-0.479670    0.925050    0.620197    6.985238    -3.102879    -125.074226    -0.989505    -8.185981    -0.070815    7.266991    1.327056    -2.993927    -1.266766    10.756382    3.532852    6.246642    -5.882517    4.944182    4.240328    7.804895    11.851155    -69.531425    22.229252    -22.488543    3.556215    -3.192559    -83.833443    -1.924344    18.381561    16.661989    3.221458    12.209973    -8.546812    72.845909    5.524285    -14.216457    5.099305    1.213663    26.753071    -11.676236    1.857880    -10.662590    -2.751934    -2.080076    9.739707    -0.615635    13.384520    -5.713569    -3.227937    -10.916785    3.289113    0.000000    0.000000    0.000000    0.634049    -16.097162    18.207634    5.894032    9.481991    3.964439    3.729973    -4.344343    -20.471949    0.000000    0.000000    0.000000    
